<svg height="512" viewBox="0 0 512 512" width="512" xmlns="http://www.w3.org/2000/svg"><g id="Filled_stroke_cut_Ex" data-name="Filled stroke cut Ex"><g><g><g><path d="m447.213 340.62-138.593 138.593a30 30 0 0 1 -42.426 0l-200.621-200.621a30 30 0 0 1 -8.628-24.3l12.993-125.6a30 30 0 0 1 26.754-26.754l125.6-12.993a30 30 0 0 1 24.3 8.628l200.621 200.621a30 30 0 0 1 0 42.426z" fill="#fac850"/><path d="m287.407 496a37.749 37.749 0 0 1 -26.87-11.131l-170.194-170.192 11.314-11.315 170.2 170.194a22 22 0 0 0 31.111 0l138.588-138.593a22 22 0 0 0 0-31.111l-26.195-26.195 11.315-11.314 26.193 26.194a38 38 0 0 1 0 53.74l-138.592 138.593a37.752 37.752 0 0 1 -26.87 11.13z"/><path d="m287.407 459.028a17.887 17.887 0 0 1 -12.728-5.271l-8.336-8.336 11.314-11.315 8.336 8.336a2 2 0 0 0 2.828 0l8.1-8.1 11.314 11.314-8.1 8.1a17.889 17.889 0 0 1 -12.728 5.272z"/><path d="m413.657 340.235-11.314-11.314 8.1-8.1a2 2 0 0 0 0-2.828l-8.336-8.336 11.315-11.314 8.336 8.336a18 18 0 0 1 0 25.457z"/><path d="m98.343 277.421-11.762-11.762a17.924 17.924 0 0 1 -5.175-14.582l1.23-11.9 15.916 1.644-1.231 11.9a1.99 1.99 0 0 0 .575 1.62l11.761 11.761z"/><path d="m472.301 248h-288l15.398-176h288z" fill="#fa5d3f"/><circle cx="129.015" cy="161.015" fill="#fffffe" r="24"/></g><path d="m151.642 138.388a32 32 0 0 0 -45.253 0 32.271 32.271 0 0 0 -4.088 4.994l-.3-1.146a56.394 56.394 0 0 1 -25.485.581l1.375-13.3a22.1 22.1 0 0 1 19.62-19.62l79.307-8.2-1.646-15.916-15.172 1.566a72 72 0 1 0 -100.725 66.674l-10.288 99.448a37.844 37.844 0 0 0 10.929 30.779l17.407 17.408 11.315-11.312-17.409-17.409a21.912 21.912 0 0 1 -6.326-17.82l9.964-96.315a72.553 72.553 0 0 0 22.186.634q-.037.787-.038 1.581a32 32 0 1 0 54.628-22.626zm-119.642-50.388a56 56 0 0 1 112 0q0 .5-.009 1l-48.122 4.98a38.163 38.163 0 0 0 -33.889 33.889l-.951 9.2a56.046 56.046 0 0 1 -29.029-49.069zm108.328 84.329a16 16 0 1 1 0-22.628 16 16 0 0 1 0 22.627z"/></g><path d="m184 248h112v104h-16z" fill="#fa7d29"/><g><path d="m493.6 66.6a8 8 0 0 0 -5.9-2.6h-288a8 8 0 0 0 -7.97 7.3l-15.212 173.87a8 8 0 0 0 1.6 8.256l96 104a8.006 8.006 0 0 0 5.882 2.574h16a8 8 0 0 0 8-8v-96h168.3a8 8 0 0 0 7.97-7.3l7-80-15.94-1.4-6.36 72.7h-271.939l14-160h271.938l-6.239 71.3 15.94 1.394 7-80a8 8 0 0 0 -2.07-6.094zm-205.6 189.4v88h-4.5l-81.232-88z"/><path d="m242 136h30v-16h-30a18.021 18.021 0 0 0 -18 18v12a18.021 18.021 0 0 0 18 18h12a2 2 0 0 1 2 2v12a2 2 0 0 1 -2 2h-30v16h30a18.021 18.021 0 0 0 18-18v-12a18.021 18.021 0 0 0 -18-18h-12a2 2 0 0 1 -2-2v-12a2 2 0 0 1 2-2z"/><path d="m336 200v-56a24 24 0 0 0 -48 0v56h16v-24h16v24zm-32-40v-16a8 8 0 0 1 16 0v16z"/><path d="m352 120v72a8 8 0 0 0 8 8h32v-16h-24v-64z"/><path d="m448 136v-16h-32a8 8 0 0 0 -8 8v64a8 8 0 0 0 8 8h32v-16h-24v-16h16v-16h-16v-16z"/></g></g></g></svg>